<?xml version="1.0" encoding="UTF-8" standalone="no"?>
<!-- Created with Inkscape (http://www.inkscape.org/) -->

<svg
   width="1000"
   height="200"
   id="svg2"
   version="1.1"
   inkscape:version="1.2.2 (b0a8486541, 2022-12-01)"
   sodipodi:docname="tesseroids.svg"
   inkscape:export-filename="tesseroids.jpg"
   inkscape:export-xdpi="96"
   inkscape:export-ydpi="96"
   xmlns:inkscape="http://www.inkscape.org/namespaces/inkscape"
   xmlns:sodipodi="http://sodipodi.sourceforge.net/DTD/sodipodi-0.dtd"
   xmlns="http://www.w3.org/2000/svg"
   xmlns:svg="http://www.w3.org/2000/svg"
   xmlns:rdf="http://www.w3.org/1999/02/22-rdf-syntax-ns#"
   xmlns:cc="http://creativecommons.org/ns#"
   xmlns:dc="http://purl.org/dc/elements/1.1/">
  <defs
     id="defs4" />
  <sodipodi:namedview
     id="base"
     pagecolor="#ffffff"
     bordercolor="#666666"
     borderopacity="1.0"
     inkscape:pageopacity="1"
     inkscape:pageshadow="2"
     inkscape:zoom="0.49497475"
     inkscape:cx="-30.304576"
     inkscape:cy="118.18785"
     inkscape:document-units="px"
     inkscape:current-layer="g3094"
     showgrid="false"
     units="cm"
     inkscape:window-width="1920"
     inkscape:window-height="1080"
     inkscape:window-x="1600"
     inkscape:window-y="0"
     inkscape:window-maximized="1"
     inkscape:showpageshadow="2"
     inkscape:pagecheckerboard="0"
     inkscape:deskcolor="#d1d1d1" />
  <metadata
     id="metadata7">
    <rdf:RDF>
      <cc:Work
         rdf:about="">
        <dc:format>image/svg+xml</dc:format>
        <dc:type
           rdf:resource="http://purl.org/dc/dcmitype/StillImage" />
      </cc:Work>
    </rdf:RDF>
  </metadata>
  <g
     inkscape:label="Layer 1"
     inkscape:groupmode="layer"
     id="layer1"
     transform="translate(-1.6302103e-5,-896.06165)">
    <g
       id="g3094"
       transform="matrix(0.90061553,0,0,0.90061553,-84.60945,620.62391)">
      <rect
         style="fill:#333333;stroke-width:8.39322;stroke-dasharray:16.7864, 8.39322;stop-color:#000000"
         id="rect595"
         width="1110.3517"
         height="222.07034"
         x="93.946266"
         y="305.83276" />
      <g
         transform="matrix(1.804852,0,0,1.7459314,202.36466,-390.26388)"
         id="g3076">
        <path
           style="fill:#d40000"
           d="m 90.250359,464.11034 c -4.882519,0 -9.102257,4.27648 -9.102257,8.82463 0,0.88246 0.697303,3.47028 2.696076,5.31422 2.952951,2.7242 3.920072,3.12675 5.1596,2.14761 1.037682,-0.8197 1.743156,-0.86972 2.206303,-0.15645 1.015156,1.56341 5.862685,0.93323 7.758353,-0.55914 0.987501,-0.77741 2.933396,-3.53932 3.040206,-5.79173 0.17186,-3.62386 -0.13671,-5.43642 -3.797644,-7.6948 -3.183431,-2.07328 -5.89073,-2.19297 -7.960637,-2.08434 z"
           id="path3068"
           inkscape:connector-curvature="0"
           sodipodi:nodetypes="csssssscc" />
        <path
           inkscape:connector-curvature="0"
           style="fill:#5aa02c"
           d="m 95.109885,462.69907 c 0.47005,0.29051 1.89849,-0.58293 3.17431,-1.94098 l 2.319685,-2.46918 h -3.019335 c -2.98179,0 -6.013627,3.62717 -6.013627,5.90203"
           id="path3059" />
        <path
           sodipodi:nodetypes="ssss"
           style="fill:#ffffff"
           d="m 83.42422,473.87676 c -0.636729,-1.17961 -0.584363,-2.53169 0.168656,-4.03977 1.159619,-2.32238 2.157527,-1.26698 2.157527,1.80108 0,3.49169 -0.934033,4.8178 -2.326183,2.23869 z"
           id="path3057"
           inkscape:connector-curvature="0" />
      </g>
      <path
         inkscape:connector-curvature="0"
         id="path3008"
         d="m 373.14214,397.26439 c -0.26149,-2.04279 0.30669,-4.12117 -0.10555,-6.15013 -0.56695,-1.43735 -1.21397,0.60717 -1.49852,1.20594 -1.4812,3.51155 -1.61815,7.90319 0.73153,11.07771 0.73827,1.27675 0.87899,-1.00318 0.88789,-1.60187 0.0472,-1.51047 -0.15663,-3.02368 -0.0154,-4.53165 z m -7.63296,9.78854 c 1.06002,-3.9048 2.69393,-7.89826 1.95063,-12.01678 -0.0266,-1.91082 0.39241,-3.91494 -0.29959,-5.75167 -0.30707,-0.83179 -1.39153,-0.83056 -1.29341,0.18085 -0.7953,3.30475 0.0313,6.7109 -0.35636,10.05108 0.32034,1.77177 -0.76951,3.37811 -1.38209,4.96331 -0.39729,1.01076 -1.02421,2.37234 -0.12836,3.30135 0.43174,0.41773 1.33899,0.84608 1.43226,-0.0184 0.0257,-0.23656 0.0512,-0.47321 0.0769,-0.70973 z m -6.30991,6.29156 c 1.68101,-5.41864 1.03252,-11.14979 1.17623,-16.7289 -0.0951,-1.67495 -0.32349,-3.43718 -1.2118,-4.89366 -0.5141,-0.85721 -1.45671,-0.2468 -1.14208,0.62658 -0.30856,7.40234 -0.0718,14.81141 -0.0945,22.21682 0.44615,-0.38337 0.852,-0.80998 1.27215,-1.22084 z"
         style="fill:#b3b3b3;stroke-width:1.01773" />
      <g
         id="g407"
         transform="matrix(1.0177279,0,0,1.0177279,249.25813,-11.537609)"
         style="fill:#ececec">
        <path
           style="fill:#ececec"
           d="m 163.08283,474.22591 c 0.36667,-0.36666 0.66667,-20.39166 0.66667,-44.5 v -43.83333 h 21.53621 21.53621 l -0.28621,-9.75 -0.28621,-9.75 h -53 -53 l -0.28598,9.7304 -0.28597,9.73039 21.78597,0.26961 21.78598,0.2696 0.2604,44.25 0.2604,44.25 h 9.32293 c 5.12762,0 9.62294,-0.3 9.9896,-0.66667 z"
           id="path3061"
           inkscape:connector-curvature="0" />
        <text
           xml:space="preserve"
           style="font-style:normal;font-variant:normal;font-weight:normal;font-stretch:normal;line-height:0%;font-family:Arial;-inkscape-font-specification:Arial;letter-spacing:0px;word-spacing:0px;fill:#ececec;fill-opacity:1;stroke:none"
           x="179.76505"
           y="473.93362"
           id="text2996"><tspan
             sodipodi:role="line"
             id="tspan2998"
             x="179.76505"
             y="473.93362"
             style="font-style:normal;font-variant:normal;font-weight:normal;font-stretch:normal;font-size:120px;line-height:1.25;font-family:Ubuntu;-inkscape-font-specification:Ubuntu;fill:#ececec">esseroids</tspan></text>
      </g>
    </g>
    <flowRoot
       xml:space="preserve"
       id="flowRoot3000"
       style="font-style:normal;font-variant:normal;font-weight:normal;font-stretch:normal;line-height:0.01%;font-family:Arial;-inkscape-font-specification:Arial;letter-spacing:0px;word-spacing:0px;fill:#000000;fill-opacity:1;stroke:none"><flowRegion
         id="flowRegion3002"><rect
           id="rect3004"
           width="0"
           height="11.428572"
           x="660"
           y="592.36218" /></flowRegion><flowPara
         id="flowPara3006"
         style="font-size:11px;line-height:1.25"> </flowPara></flowRoot>
  </g>
</svg>
